<?xml version="1.0" standalone="no"?>
<!DOCTYPE svg PUBLIC "-//W3C//DTD SVG 20010904//EN"
 "http://www.w3.org/TR/2001/REC-SVG-20010904/DTD/svg10.dtd">
<svg version="1.0" xmlns="http://www.w3.org/2000/svg"
 width="1024.000000pt" height="1024.000000pt" viewBox="0 0 1024.000000 1024.000000"
 preserveAspectRatio="xMidYMid meet">

<g transform="translate(0.000000,1024.000000) scale(0.100000,-0.100000)"
fill="#000000" stroke="none">
<path d="M7815 8540 c-69 -14 -154 -50 -217 -93 -84 -57 -103 -85 -103 -152 0
-65 22 -100 86 -133 56 -29 104 -23 174 21 72 47 99 57 156 57 62 0 105 -18
158 -65 152 -138 206 -434 119 -660 l-20 -53 -117 5 c-241 11 -490 -54 -962
-251 l-136 -56 -124 30 c-319 79 -632 115 -907 107 -199 -6 -311 -24 -451 -72
-375 -127 -573 -454 -531 -875 12 -125 39 -228 81 -313 47 -93 134 -193 213
-241 17 -11 32 -21 34 -22 2 -1 -14 -35 -36 -76 -98 -180 -187 -464 -217 -694
-19 -147 -19 -411 0 -557 16 -126 59 -306 97 -407 22 -59 29 -67 70 -87 73
-35 263 -89 398 -113 159 -28 441 -37 601 -21 261 27 541 106 749 211 34 17
63 30 65 28 1 -2 18 -28 37 -58 48 -76 156 -174 236 -214 140 -70 319 -104
491 -91 442 32 709 314 771 815 15 122 12 393 -5 550 -19 170 -37 275 -81 471
l-34 156 45 98 c142 305 241 600 266 790 12 91 7 256 -10 327 -9 38 -9 38 37
58 77 34 157 50 254 51 143 1 250 -33 335 -105 97 -84 97 -196 0 -340 -50 -72
-29 -170 45 -217 26 -16 45 -19 92 -16 57 3 62 6 103 51 50 56 106 166 128
251 42 167 -8 346 -134 469 -95 95 -191 148 -336 187 -65 18 -108 22 -230 23
-165 0 -230 -11 -363 -65 l-76 -30 -58 58 -58 58 29 75 c81 209 80 462 -3 690
-19 51 -79 162 -107 200 -146 190 -354 280 -554 240z m387 -1418 c75 -37 125
-88 168 -172 82 -161 64 -398 -53 -700 l-43 -113 -53 144 c-72 195 -178 434
-209 471 -34 40 -309 167 -530 244 -28 10 -49 21 -45 25 23 20 316 112 423
133 14 2 81 3 150 3 120 -2 128 -3 192 -35z m-1907 -147 c249 -30 505 -86 796
-174 154 -46 420 -140 456 -159 17 -10 -56 -52 -305 -176 -630 -315 -1169
-486 -1528 -486 -282 1 -419 98 -459 326 -36 202 1 383 103 496 151 168 474
227 937 173z m1632 -780 c197 -536 305 -1046 306 -1445 1 -414 -106 -641 -340
-722 -58 -20 -87 -23 -203 -23 -112 0 -147 4 -206 22 -175 55 -252 176 -262
413 -11 275 77 628 280 1114 116 278 363 776 378 759 4 -4 25 -57 47 -118z
m-564 -194 c-53 -115 -124 -273 -135 -300 -9 -24 -15 -19 -158 124 -82 82
-146 152 -142 155 4 4 50 25 102 48 52 22 138 61 190 86 l95 45 42 -41 41 -41
-35 -76z m-659 -540 l320 -320 -32 -128 c-37 -145 -62 -275 -62 -315 0 -16 -3
-28 -8 -28 -4 0 -234 227 -511 504 -447 447 -502 505 -480 510 13 2 78 14 144
26 66 12 156 32 200 45 44 12 87 23 95 24 8 0 159 -143 334 -318z m-84 -1223
c0 -18 -288 -93 -398 -103 l-67 -6 -418 419 -419 419 16 86 c18 97 53 222 87
311 l21 59 589 -589 c324 -324 589 -592 589 -596z"/>
<path d="M2000 5178 c-25 -14 -53 -39 -64 -58 -38 -65 -18 -156 45 -201 25
-17 53 -24 128 -30 136 -12 221 -27 336 -61 55 -17 117 -30 138 -30 55 1 98
30 125 84 45 90 3 178 -103 217 -124 46 -309 84 -475 96 -78 6 -89 5 -130 -17z"/>
<path d="M1462 5064 c-91 -47 -214 -146 -272 -218 -59 -73 -118 -171 -132
-218 -32 -106 77 -218 181 -188 55 16 78 37 117 107 48 86 160 199 240 240 70
37 87 54 109 107 40 96 -37 206 -144 206 -16 0 -61 -16 -99 -36z"/>
<path d="M2975 4845 c-49 -17 -81 -53 -95 -104 -17 -63 7 -116 77 -176 96 -82
196 -186 258 -269 77 -102 101 -120 165 -120 117 0 190 133 129 234 -47 76
-152 201 -246 291 -157 149 -206 173 -288 144z"/>
<path d="M1085 4233 c-32 -8 -84 -51 -100 -83 -41 -79 21 -416 108 -591 24
-47 54 -92 70 -104 39 -28 125 -28 163 1 80 59 91 119 41 237 -43 104 -73 223
-86 345 -11 102 -29 143 -76 172 -33 20 -89 31 -120 23z"/>
<path d="M3489 3977 c-19 -12 -42 -40 -53 -61 -17 -35 -18 -46 -6 -142 9 -72
11 -152 6 -261 -4 -87 -8 -170 -8 -184 -1 -27 35 -126 61 -167 18 -30 82 -62
122 -62 38 0 459 139 539 178 77 38 103 79 98 154 -5 62 -27 96 -80 124 -46
24 -98 16 -256 -41 -84 -30 -155 -55 -158 -55 -2 0 -4 55 -4 123 0 150 -22
307 -50 352 -40 65 -146 86 -211 42z"/>
<path d="M4770 3870 c-14 -4 -86 -36 -160 -72 -152 -72 -171 -91 -178 -173 -3
-40 1 -57 20 -84 67 -98 119 -100 311 -12 88 41 146 74 162 93 68 81 45 196
-48 239 -45 20 -67 22 -107 9z"/>
<path d="M1522 3343 c-52 -25 -77 -69 -77 -134 0 -80 28 -113 147 -171 150
-74 376 -138 488 -138 138 0 205 160 107 258 -31 30 -46 36 -154 58 -135 26
-236 60 -334 110 -73 38 -125 43 -177 17z"/>
<path d="M2976 3254 c-65 -13 -187 -33 -271 -43 -83 -10 -166 -26 -182 -35
-45 -23 -73 -74 -73 -132 0 -63 27 -107 82 -135 40 -21 47 -21 156 -10 135 14
385 55 459 76 83 24 120 82 110 171 -6 55 -52 109 -107 124 -42 12 -28 13
-174 -16z"/>
<path d="M3377 2986 c-20 -8 -44 -20 -53 -27 -9 -7 -44 -69 -79 -138 -35 -70
-100 -184 -144 -256 -91 -146 -99 -179 -58 -249 50 -88 176 -101 243 -25 39
44 158 243 227 379 62 123 68 139 64 183 -5 60 -30 95 -87 125 -51 25 -61 26
-113 8z"/>
<path d="M2807 2130 c-28 -8 -428 -409 -454 -454 -17 -29 -16 -91 2 -125 33
-64 107 -101 173 -86 45 9 155 108 317 282 154 167 173 198 159 269 -9 48 -57
101 -102 114 -43 11 -56 11 -95 0z"/>
<path d="M1950 1454 c-98 -47 -287 -125 -373 -153 -114 -38 -154 -88 -145
-182 4 -42 12 -57 41 -87 30 -30 44 -36 89 -40 45 -3 73 3 180 42 146 53 361
147 398 174 98 72 90 211 -15 262 -58 28 -90 25 -175 -16z"/>
<path d="M1050 1157 c-3 -3 -67 -15 -143 -28 -148 -24 -185 -40 -218 -91 -16
-26 -19 -45 -16 -91 3 -51 8 -62 40 -95 l37 -37 93 1 c107 2 281 36 317 63 84
62 82 198 -5 251 -30 18 -96 35 -105 27z"/>
</g>
</svg>
